DataType=double
version=3
OpenSimVersion=4.5-2023-11-26-efcdfd3eb
endheader
time	EMG01_right_gast_med	EMG02_right_glut_max	EMG03_left_gast_med	EMG04_left_glut_max	EMG05_right_glut_med	EMG06_right_bic_fem	EMG07_right_rect_fem	EMG08_right_vast_lat	EMG09_right_vast_med	EMG10_right_tens_fasc_lat	EMG11_left_glut_med	EMG12_left_bic_fem	EMG13_left_rect_fem	EMG14_left_vast_lat	EMG15_left_vast_med	EMG16_left_tens_fasc_lat
2.52	0.02866035979217196	0.07117378707964778	0.3442868913624916	0.0107352304635332	0.05904657291894733	0.1508439143041073	0.04802369714614276	0.01851299253178039	0.03691938601069937	0.05844737661258743	0.0349676818404904	0.02144734700234787	0.06944415402817829	0.02931037858662055	0.009319816960020724	0.03055371260338747
2.53	0.03231902304605787	0.07506526906371944	0.3377739687525133	0.01130701299097892	0.06327444679492447	0.1536097526465933	0.05029804866557423	0.01958232801451222	0.04101445250281257	0.06658604651150656	0.03370318822797619	0.02184026461836373	0.06943460199674785	0.02979363738494454	0.01000395988541685	0.02684086598390508
2.54	0.03632140637429697	0.07922620487343918	0.3297173107197575	0.01213547070644131	0.06736486464265128	0.1559540816008545	0.05252767712122816	0.02064159280411249	0.04518169494881675	0.07572741087347595	0.03254215802183228	0.02216111280816147	0.06916671611957941	0.03022370558584513	0.01077635511715728	0.02361926888336338
2.55	0.04067141517507034	0.08360386771980793	0.3201996825499291	0.01322542491693205	0.07126784785351979	0.1578499241926544	0.05469280385824354	0.02167930751936807	0.04938457517305458	0.08583383772100804	0.03146989863742703	0.02240490211549247	0.06863895924260589	0.03059855876995057	0.01162505213710116	0.02089685605003826
2.56	0.04537007373814077	0.08814236884523664	0.309322451707758	0.01457871788221998	0.07493582341692259	0.1592744180014246	0.05677417234329189	0.02268402645522458	0.05358529811052948	0.09685467686239362	0.03047288042162792	0.02256840642017427	0.06785311153268501	0.03091702695892996	0.01253763868075135	0.01867581441236939
2.57	0.05041552420397381	0.09278336724049074	0.2972035144728893	0.01619405310985245	0.07832427124438231	0.160209348542497	0.05875322275992863	0.02364451356388626	0.0577452715640225	0.1087260414396533	0.02953884272122346	0.02265023547655145	0.06681421965256998	0.0311786395373676	0.01350135759311995	0.01695276257839246
2.58	0.0558030876959325	0.09746682726087851	0.283974927051132	0.01806687876022264	0.08139234786461484	0.1606416082003969	0.06061225449769733	0.02454992009922939	0.06182559024797894	0.1213707865000797	0.02865688670929891	0.02265089025078588	0.06553050200197784	0.03138346887657049	0.01450322443089905	0.01571898936244253
2.59	0.06152538614902168	0.1021318155761409	0.2697803115581439	0.02018931794414245	0.08410347343710275	0.1605635554005111	0.0623345778399922	0.02538996049666314	0.0657875359279347	0.1346987002351954	0.02781755569206186	0.02257279957090738	0.06401321008265647	0.03153198051324413	0.01553014497068002	0.01496074583876042
2.6	0.06757252171515571	0.1067173275715867	0.2547721110378094	0.02255014911718941	0.08642586926568999	0.1599732519971104	0.0639046569476439	0.02615508276473404	0.06959308489984545	0.1486069207229618	0.02701290337308679	0.02242033605482372	0.06227644923237418	0.03162489711234103	0.01656903184617395	0.01465958546236296
2.61	0.07393230894357168	0.1111631323310444	0.2391087689918525	0.02513483910702433	0.08833303306074376	0.158874564343472	0.06530824650298939	0.02683662942542841	0.07320541377426898	0.1629805873195165	0.02623655043195327	0.0221998087786918	0.06033696459456237	0.03166308252858214	0.0176069195887216	0.01479274675953404
2.62	0.08059055317403438	0.1154106244367879	0.2229519076294486	0.02792563052273107	0.08980413853978986	0.1572771241850686	0.06653252407617906	0.02742698486182984	0.07658939458240617	0.1776937316189607	0.02548372978998573	0.02191942960075956	0.05821389919976527	0.03164745114712231	0.01863107737016593	0.01533357300214544
2.63	0.08753136651812241	0.1194036697490276	0.2064635748159412	0.03090168442456995	0.09082434497753632	0.1551961559397581	0.06756621936550881	0.02791970490229683	0.07971207086452277	0.1926104087272683	0.0247513209014261	0.02158924940622771	0.05592853033734852	0.03157890632247463	0.01962911874769183	0.01625196323968541
2.64	0.09473751032110206	0.1230894308118404	0.1898036227357897	0.03403927826756926	0.09138500228346712	0.1526521840217918	0.06839974004726912	0.02830962482801822	0.08254310742440797	0.2075860653386185	0.02403787312847028	0.02122106001360302	0.05350398875571752	0.03145831021360127	0.02058910772959981	0.01751484916816159
2.65	0.102190750489193	0.1264191552392318	0.1731272725911081	0.03731205831340977	0.09148373941044942	0.1496706374332452	0.06902529236296177	0.02859294285477447	0.08505520708575252	0.2224691359334703	0.02334361772571229	0.02082825758338897	0.05096496381444937	0.03128648581129111	0.02149966064820896	0.01908669259306344
2.66	0.1098722104748311	0.1293489075290092	0.1565829101554321	0.04069134492595211	0.09112442877851849	0.1462813705622271	0.06943699331668504	0.02876727731422195	0.0872244875928322	0.2371028522875569	0.02267046731527965	0.02042566464304667	0.04833739741946123	0.03106425063455952	0.02235004375043954	0.02092999864142984
2.67	0.1177627070069026	0.1318402224157947	0.1403101470791599	0.04414648843377235	0.09031702599045195	0.1425181203197684	0.06963097084498387	0.02883169696239307	0.08903081098754495	0.2513272460000242	0.02202200115485289	0.02002931044426468	0.04564817037150728	0.03079248042095109	0.02313026700265353	0.02300584031884598
2.68	0.125843056217974	0.133860657612919	0.1244381727741058	0.04764527249328539	0.08907729085233369	0.1384179205539188	0.06960544819798886	0.02878672489742032	0.09045805702904876	0.2649813206542123	0.02140343417225181	0.01965617263265551	0.04292478570280231	0.03047219997809727	0.02383117506841923	0.02527439038436817
2.69	0.1340943421690671	0.1353842262933613	0.1090844119590578	0.05115436092024385	0.08742640158997457	0.1340204942891624	0.06936080837537671	0.02863431734516299	0.0914943323262748	0.2779053694157768	0.02082156783590364	0.01932388594342383	0.04019505382547196	0.03010469706459448	0.02444453651052034	0.02769545667537205
